<?xml version="1.0" standalone="yes"?>
<svg width="285" height="285">
<path style="fill:#ffffff; stroke:none;" d="M0 0L0 235L285 235L285 0L0 0z"/>
<path style="fill:#0285d3; stroke:none;" d="M108 73C112.913 73 120.041 71.436 123 76L124 76C126.185 70.3589 135.707 56.8875 143 59.6474C149.142 61.9715 152.329 68.9726 158 72C158 68.0473 170.026 69.577 172 72C173.728 67.1279 170.286 62.1141 167.796 58C162.505 49.2616 153.167 32.7359 141 32.6929C125.595 32.6384 109.946 60.0204 108 73z"/>
<path style="fill:#65e3c8; stroke:none;" d="M128 39L129 40L128 39z"/>
<path style="fill:#00d9aa; stroke:none;" d="M120 47C115.881 52.1102 98.3989 71.6091 106 78L114.464 58L120 47z"/>
<path style="fill:#60f9bd; stroke:none;" d="M162.333 47.6667L162.667 48.3333L162.333 47.6667z"/>
<path style="fill:#ffa904; stroke:none;" d="M80 61C90.2137 58.5334 98.3298 58.7534 105 68C115.881 56.2036 82.0945 37.7445 80 61z"/>
<path style="fill:#ffcb59; stroke:none;" d="M88 49L88 50L91 50L88 49z"/>
<path style="fill:#00ccad; stroke:none;" d="M162 49L175 78C184.756 74.7274 166.711 52.4701 162 49z"/>
<path style="fill:#c53ae6; stroke:none;" d="M180 56L201 55C197.066 46.3468 184.152 48.0643 180 56z"/>
<path style="fill:#b0cbef; stroke:none;" d="M38 55L38 59L39 59L38 55z"/>
<path style="fill:#ff3dff; stroke:none;" d="M172 62L173 63L180 55L172 62z"/>
<path style="fill:#9533d5; stroke:none;" d="M175 68C179.843 65.742 184.228 58.8037 189.907 58.8511C195.331 58.8963 197.895 68.7599 194.397 72.2616C192.013 74.6478 187.063 75.1323 184 76.4282C174.153 80.5945 163.398 85.6139 159 96L184 92.8958L197.721 92.6034L202 106C205.713 106 214.379 107.602 216.976 104.397C221.91 98.3072 215.662 78.7422 209.66 75.0278C207.221 73.5187 203.738 74.0021 201 74L201 55C192.315 57.0677 170.358 52.0929 175 68z"/>
<path style="fill:#ffd055; stroke:none;" d="M105.333 56.6667L105.667 57.3333L105.333 56.6667z"/>
<path style="fill:#4080d8; stroke:none;" d="M243 56L243 59L244 59L243 56z"/>
<path style="fill:#739de0; stroke:none;" d="M37 58L37 62L38 62L37 58z"/>
<path style="fill:#ffcc7e; stroke:none;" d="M89 58L89 59L92 59L89 58z"/>
<path style="fill:#ffffff; stroke:none;" d="M119 86L141 111L163 86C160.542 77.3578 152.023 58.6586 141 58.6975C130.258 58.7355 121.283 77.2562 119 86z"/>
<path style="fill:#ddaef1; stroke:none;" d="M189 58L189 59L193 59L189 58z"/>
<path style="fill:#ffe191; stroke:none;" d="M79 59L79 62L80 62L79 59z"/>
<path style="fill:#ffffff; stroke:none;" d="M86 73L103 76C104.162 72.812 105.673 69.3448 103.968 66.0432C101.88 61.9994 91.9551 56.178 87.9383 60.6042C85.2556 63.5602 86.0024 69.3341 86 73M179 77L195 73C195 69.5931 195.955 64.2883 193.972 61.3179C189.626 54.8086 178.951 63.1113 177.241 68C176.238 70.8656 178.221 74.2623 179 77z"/>
<path style="fill:#0a84c8; stroke:none;" d="M244 59C246.163 75.7526 246.736 89.2492 244.483 105.995C243.956 109.916 245.323 111.386 249 112L247 124L248 124C252.449 106.802 255.316 74.2066 244 59z"/>
<path style="fill:#ff8d00; stroke:none;" d="M81 73C59.0464 73.0169 63.565 109.405 68 124L77 115L78 119L79 119C79 111.373 77.0398 95.2937 86.1049 91.6034C90.748 89.7133 96.3618 92.3181 101 93C103.623 88.5959 109.025 86.8539 114 87C105.934 72.3051 83.1435 80.773 87 60C78.8374 60.268 79.4196 66.3618 81 73z"/>
<path style="fill:#0990c5; stroke:none;" d="M36 61C30.2106 81.4015 28.9468 103.1 33 124L34 124C36.9134 121.913 38.5488 122.523 41 125L42 125L34.2593 85L36 61z"/>
<path style="fill:#fff6bb; stroke:none;" d="M78 62L76 72L76 73C80.3075 72.077 79.8399 65.1934 78 62z"/>
<path style="fill:#ffdd24; stroke:none;" d="M79 62L81 73L79 62z"/>
<path style="fill:#ffb066; stroke:none;" d="M86.3333 62.6667L86.6667 63.3333L86.3333 62.6667z"/>
<path style="fill:#e853f3; stroke:none;" d="M202 62L201 73L203 73L202 62z"/>
<path style="fill:#dfd0f2; stroke:none;" d="M195 63L195 73L196 73L195 63z"/>
<path style="fill:#adcdee; stroke:none;" d="M36.3333 65.6667L36.6667 66.3333L36.3333 65.6667z"/>
<path style="fill:#cde0f4; stroke:none;" d="M245 67L245 75L246 75L245 67z"/>
<path style="fill:#8fb5e6; stroke:none;" d="M247 67L247 70L248 70L247 67z"/>
<path style="fill:#62e8d0; stroke:none;" d="M105 68L105 72L106 72L105 68z"/>
<path style="fill:#afcceb; stroke:none;" d="M35 70L35 75L36 75L35 70z"/>
<path style="fill:#01a0ca; stroke:none;" d="M157 70L163 85L176 79L174 71L157 70z"/>
<path style="fill:#adc1ea; stroke:none;" d="M248 71L248 74L249 74L248 71z"/>
<path style="fill:#62ddc4; stroke:none;" d="M104.333 72.6667L104.667 73.3333L104.333 72.6667z"/>
<path style="fill:#fde644; stroke:none;" d="M87 73L87 74L90 74L87 73z"/>
<path style="fill:#01a1c9; stroke:none;" d="M119 85L123 73C119.1 73 110.924 71.4446 107.747 74.0239C102.13 78.584 116.224 83.8557 119 85z"/>
<path style="fill:#fc83fe; stroke:none;" d="M191 73L191 74L194 74L191 73z"/>
<path style="fill:#4300b6; stroke:none;" d="M201 73L201 74L209 74L201 73z"/>
<path style="fill:#b185de; stroke:none;" d="M209 73L210 74L209 73z"/>
<path style="fill:#ffda01; stroke:none;" d="M91 74L91 75L94 75L91 74z"/>
<path style="fill:#84e4d7; stroke:none;" d="M103.333 74.6667L103.667 75.3333L103.333 74.6667z"/>
<path style="fill:#e851f6; stroke:none;" d="M187.667 74.3333L188.333 74.6667L187.667 74.3333z"/>
<path style="fill:#fff7a4; stroke:none;" d="M97 75L97 76L100 76L97 75z"/>
<path style="fill:#ff9cff; stroke:none;" d="M182 75L182 76L185 76L182 75z"/>
<path style="fill:#c30be4; stroke:none;" d="M185.667 75.3333L186.333 75.6667L185.667 75.3333z"/>
<path style="fill:#8dbae1; stroke:none;" d="M246 75L246 96L247 96L246 75z"/>
<path style="fill:#fff19a; stroke:none;" d="M100 76L100 77L103 77L100 76z"/>
<path style="fill:#d03beb; stroke:none;" d="M148 133L149 133C152.465 120.333 160.791 111.545 168 101L154 103C160.479 90.3083 171.119 82.3558 184 77C179.801 75.7617 175.852 78.4754 172 80.0895C161.417 84.5244 142.919 98.2871 141.988 111C141.44 118.5 147.65 125.351 148 133z"/>
<path style="fill:#ffc900; stroke:none;" d="M100 77L100 78C111.681 83.2849 120.507 90.8548 127 102L119 105L129 123L135 117L138 118L139 115L142 117L143 117C139.791 99.0076 117.752 79.6608 100 77z"/>
<path style="fill:#59ce79; stroke:none;" d="M103.667 77.3333L104.333 77.6667L103.667 77.3333z"/>
<path style="fill:#8bbce4; stroke:none;" d="M31 78L31 81L32 81L31 78z"/>
<path style="fill:#91d5e7; stroke:none;" d="M121.333 79.6667L121.667 80.3333L121.333 79.6667z"/>
<path style="fill:#428dd1; stroke:none;" d="M34 81L34 88L35 88L34 81z"/>
<path style="fill:#a1dde9; stroke:none;" d="M162 81L162 85L163 85L162 81z"/>
<path style="fill:#cb89eb; stroke:none;" d="M214.333 81.6667L214.667 82.3333L214.333 81.6667z"/>
<path style="fill:#82b7e2; stroke:none;" d="M250 82L250 85L251 85L250 82z"/>
<path style="fill:#7fb6e2; stroke:none;" d="M30 83L30 88L31 88L30 83z"/>
<path style="fill:#d97af0; stroke:none;" d="M215.333 84.6667L215.667 85.3333L215.333 84.6667z"/>
<path style="fill:#ffb100; stroke:none;" d="M101 90C102.091 96.6223 114.165 104.283 120 107L127 102C121.252 87.7285 114.179 85.7423 101 90z"/>
<path style="fill:#48a6d2; stroke:none;" d="M30 88L30 110L31 110L30 88z"/>
<path style="fill:#ffffff; stroke:none;" d="M115 163C103.494 138.678 95.8202 120.62 98 93C94.2994 92.2823 88.8763 90.1216 85.2137 91.6181C77.374 94.8212 79.6436 114.482 80.5795 121C83.19 139.181 96.8626 157.775 115 163z"/>
<path style="fill:#ffa842; stroke:none;" d="M90 91L90 92L95 92L90 91z"/>
<path style="fill:#ffffff; stroke:none;" d="M183 93C187.865 119.207 179.472 141.15 166 163C184.429 158.621 199.046 139.175 201.285 121C202.131 114.131 204.828 96.5025 197.721 92.0278C193.619 89.4445 187.201 91.8195 183 93z"/>
<path style="fill:#ffc700; stroke:none;" d="M64 92C64 113.017 64.1048 131.333 75 150C80.0396 146.252 83.5809 144.559 90 145L77 115L68 124L64 92z"/>
<path style="fill:#ffc478; stroke:none;" d="M95 92L95 93L98 93L95 92z"/>
<path style="fill:#0093bb; stroke:none;" d="M98 93C98 105.139 92.6828 125.987 109 126L106 96L98 93z"/>
<path style="fill:#b138df; stroke:none;" d="M154 103L181 94C171.67 90.0848 157.514 92.7477 154 103z"/>
<path style="fill:#009abb; stroke:none;" d="M182 93C175.193 97.4146 171.384 121.603 171 130C173.747 130 178.083 130.748 180.411 128.972C186.838 124.071 185.33 99.264 182 93z"/>
<path style="fill:#a5d1e9; stroke:none;" d="M251 93L251 102L252 102L251 93z"/>
<path style="fill:#cde3f2; stroke:none;" d="M245 94L245 102L246 102L245 94z"/>
<path style="fill:#76d0d3; stroke:none;" d="M183.333 95.6667L183.667 96.3333L183.333 95.6667z"/>
<path style="fill:#ffe236; stroke:none;" d="M63 96L64 123L65 123L63 96z"/>
<path style="fill:#01deb2; stroke:none;" d="M151 151C171.869 141.268 173.459 115.073 178 96C162.802 100.843 167.484 116.369 163.691 129C161.177 137.371 155.526 143.731 151 151z"/>
<path style="fill:#55bdcb; stroke:none;" d="M97 97L97 117L98 117L97 97z"/>
<path style="fill:#01e4af; stroke:none;" d="M105 97C105 116.088 112.714 143.379 132 152C125.712 142.492 120.046 134.219 117.015 123C114.156 112.42 117.698 101.055 105 97z"/>
<path style="fill:#ffe7c5; stroke:none;" d="M80 98L80 102L81 102L80 98z"/>
<path style="fill:#cc3ce9; stroke:none;" d="M218 98C217.694 107.403 210.484 106 203 106L202 121L203 121L204 115L215 116L210 135C220.217 132.122 221.448 106.216 218 98z"/>
<path style="fill:#5eaed7; stroke:none;" d="M36 101L36 105L37 105L36 101z"/>
<path style="fill:#ffcf84; stroke:none;" d="M79 102L79 106L80 106L79 102z"/>
<path style="fill:#efbdf7; stroke:none;" d="M219 102L219 113L220 113L219 102z"/>
<path style="fill:#90e5df; stroke:none;" d="M166 103L166 113L167 113L166 103z"/>
<path style="fill:#ffffff; stroke:none;" d="M115 104C115.042 119.351 118.376 139.781 131 150C131 132.197 131.528 115.676 115 104M165 104C158.901 111.685 150.078 121.699 149.299 132C148.854 137.893 150.951 144.043 151 150C161.428 141.51 170.532 117.184 165 104z"/>
<path style="fill:#61b5d6; stroke:none;" d="M37 106L37 111L38 111L37 106z"/>
<path style="fill:#ffeac4; stroke:none;" d="M79 106L79 115L80 115L79 106z"/>
<path style="fill:#e08df2; stroke:none;" d="M202 106L202 116L203 116L202 106z"/>
<path style="fill:#13babf; stroke:none;" d="M243 110C239.533 133.478 222.36 145.896 213 166L220 163C228.583 151.733 239.746 142.663 245 129L246 129L246 132L247 132L249 112L243 110z"/>
<path style="fill:#66bad8; stroke:none;" d="M250 110L250 113L251 113L250 110z"/>
<path style="fill:#9ed1e4; stroke:none;" d="M38 111L38 114L39 114L38 111z"/>
<path style="fill:#91e8df; stroke:none;" d="M115 112L115 116L116 116L115 112z"/>
<path style="fill:#ffda7e; stroke:none;" d="M79 115L80 124L81 124L79 115z"/>
<path style="fill:#ff9506; stroke:none;" d="M139 115L135 117L139 138C151.438 134.12 146.742 124.062 142 115L139 115z"/>
<path style="fill:#f943fb; stroke:none;" d="M204 115C199.386 129.979 194.114 142.574 182.285 153.532C177.386 158.071 168.771 159.975 165 165C187.834 161.925 213.887 140.365 215 116L204 115z"/>
<path style="fill:#a1d8e6; stroke:none;" d="M31.3333 116.667L31.6667 117.333L31.3333 116.667z"/>
<path style="fill:#ffed00; stroke:none;" d="M134 118C127.425 125.476 134.086 143.449 134 154L135 154C137.819 143.351 141.211 127.691 134 118z"/>
<path style="fill:#94ebdc; stroke:none;" d="M165.333 118.667L165.667 119.333L165.333 118.667z"/>
<path style="fill:#7bc2d8; stroke:none;" d="M183 118L183 121L184 121L183 118z"/>
<path style="fill:#f1a5f7; stroke:none;" d="M201.333 119.667L201.667 120.333L201.333 119.667z"/>
<path style="fill:#81ebd6; stroke:none;" d="M116.333 120.667L116.667 121.333L116.333 120.667z"/>
<path style="fill:#abf8de; stroke:none;" d="M32.3333 121.667L32.6667 122.333L32.3333 121.667z"/>
<path style="fill:#12bbbf; stroke:none;" d="M34 122C34.0627 129.478 36.8581 147.693 47 145C54.8478 162.608 81.9941 182.73 101 186C84.1755 172.407 67.0283 164.822 54.0255 146C48.3887 137.841 45.4228 122.366 34 122z"/>
<path style="fill:#91cbe0; stroke:none;" d="M98.3333 122.667L98.6667 123.333L98.3333 122.667z"/>
<path style="fill:#005dc7; stroke:none;" d="M108 122L109 126L100 124L99 124C100.459 141.858 110.947 158.202 122.715 170.961C126.759 175.346 134.391 183.117 140.83 183.332C145.45 183.486 151.595 177.657 155 174.985C167.568 165.122 180.25 146.404 181 130L170 128L160.737 142.001L152 150.275L142 156.593L131.001 151.511L108 122z"/>
<path style="fill:#68c1d5; stroke:none;" d="M239.333 122.667L239.667 123.333L239.333 122.667z"/>
<path style="fill:#c5fbe8; stroke:none;" d="M248 122L248 126L249 126L248 122z"/>
<path style="fill:#41ecb7; stroke:none;" d="M33.3333 124.667L33.6667 125.333L33.3333 124.667z"/>
<path style="fill:#f36c73; stroke:none;" d="M146 124L146 127L147 127L146 124z"/>
<path style="fill:#58e4c3; stroke:none;" d="M164 124L164 127L165 127L164 124z"/>
<path style="fill:#89d2e0; stroke:none;" d="M238 125L238 129L239 129L238 125z"/>
<path style="fill:#7cebc9; stroke:none;" d="M247 126L247 129L248 129L247 126z"/>
<path style="fill:#f25ca2; stroke:none;" d="M147 127L147 130L148 130L147 127z"/>
<path style="fill:#85eed3; stroke:none;" d="M163 127L163 130L164 130L163 127z"/>
<path style="fill:#fff165; stroke:none;" d="M131.333 128.667L131.667 129.333L131.333 128.667z"/>
<path style="fill:#aad1e8; stroke:none;" d="M181 129L181 135L182 135L181 129z"/>
<path style="fill:#009eae; stroke:none;" d="M245 129L222 162L232 163C236.309 155.259 248.195 138.006 245 129z"/>
<path style="fill:#9cf3dc; stroke:none;" d="M162 130L162 134L163 134L162 130z"/>
<path style="fill:#f8eda2; stroke:none;" d="M132.333 132.667L132.667 133.333L132.333 132.667z"/>
<path style="fill:#4d29b9; stroke:none;" d="M210 132C199.283 145.876 184.212 166.09 164 164C159.848 171.999 151.031 178.201 143 182L143 183C172.645 183.02 208.946 166.597 214 133L213 133L210 135L210 132z"/>
<path style="fill:#ff660a; stroke:none;" d="M147 133L138 137C137.796 141.748 134.719 148.487 135.812 152.956C137.718 160.744 146.377 155.977 148.973 151.561C151.841 146.683 149.666 138.268 149 133L147 133z"/>
<path style="fill:#d4a4ee; stroke:none;" d="M214.333 133.667L214.667 134.333L214.333 133.667z"/>
<path style="fill:#75e0cd; stroke:none;" d="M245.333 133.667L245.667 134.333L245.333 133.667z"/>
<path style="fill:#892bcd; stroke:none;" d="M132 134C130.869 140.09 129.212 148.311 134 153L132 134z"/>
<path style="fill:#ffc9a2; stroke:none;" d="M149.333 135.667L149.667 136.333L149.333 135.667z"/>
<path style="fill:#99c4e4; stroke:none;" d="M180.333 135.667L180.667 136.333L180.333 135.667z"/>
<path style="fill:#aceae1; stroke:none;" d="M37.3333 137.667L37.6667 138.333L37.3333 137.667z"/>
<path style="fill:#a1c8e6; stroke:none;" d="M179.333 138.667L179.667 139.333L179.333 138.667z"/>
<path style="fill:#7bdacd; stroke:none;" d="M38.3333 139.667L38.6667 140.333L38.3333 139.667z"/>
<path style="fill:#750bfb; stroke:none;" d="M133 139L133 151L134 151L133 139z"/>
<path style="fill:#b5d2eb; stroke:none;" d="M104.333 142.667L104.667 143.333L104.333 142.667z"/>
<path style="fill:#ffc6a7; stroke:none;" d="M150 142L150 151L151 151L150 142z"/>
<path style="fill:#e4d42c; stroke:none;" d="M134 143L134 147L135 147L134 143z"/>
<path style="fill:#ffef00; stroke:none;" d="M82 145C89.1624 155.798 103.911 164.402 117 165C113.232 161.598 108.133 160.087 104 157.073C95.9026 151.166 92.6732 144.638 82 145z"/>
<path style="fill:#67a3d9; stroke:none;" d="M105 144L105 148L106 148L105 144z"/>
<path style="fill:#00a2af; stroke:none;" d="M41 146L50 164L60 161L47 145L41 146z"/>
<path style="fill:#ff7d08; stroke:none;" d="M80.186 146.06C75.355 146.812 77.2137 152.455 78.9475 155C82.6949 160.501 90.1814 171.033 98 169.897C116.844 167.16 93.2796 156.011 89.0895 152.482C86.7135 150.481 83.8026 145.498 80.186 146.06z"/>
<path style="fill:#73cdcd; stroke:none;" d="M238 149L238 152L239 152L238 149z"/>
<path style="fill:#81b1e1; stroke:none;" d="M108 152L109 153L108 152z"/>
<path style="fill:#00f9b5; stroke:none;" d="M132 152L133 153L132 152z"/>
<path style="fill:#92b047; stroke:none;" d="M148 152L149 153L148 152z"/>
<path style="fill:#00ffc5; stroke:none;" d="M133 153L134 154L133 153z"/>
<path style="fill:#7dc957; stroke:none;" d="M147 153L148 154L147 153z"/>
<path style="fill:#4cf87f; stroke:none;" d="M135 154L136 155L135 154z"/>
<path style="fill:#6e7a77; stroke:none;" d="M143 156L144 157L143 156z"/>
<path style="fill:#0171b3; stroke:none;" d="M180 188L180 189C187.884 189 198.431 190.937 206 188.951C215.469 186.467 228.037 170.934 231 162L222 162L224 159L208 171.573L180 188z"/>
<path style="fill:#0159b6; stroke:none;" d="M51 163C55.4653 174.609 67.2956 184.13 77.4244 190.665C104.511 208.142 136.154 215.557 168 207.37C179.241 204.481 197.793 199.719 204 189L180 189L180 188L185 186C178.042 184.836 164.558 190.366 157 191.679C141.541 194.364 123.105 193.48 108 189.211C96.3645 185.923 84.8801 179.651 75 172.795C66.582 166.953 62.0459 159.645 51 163z"/>
<path style="fill:#7da6e5; stroke:none;" d="M114 161L115 162L114 161z"/>
<path style="fill:#19dfb9; stroke:none;" d="M188 182L188 183C197.94 180.638 214.29 171.276 219 162L188 182z"/>
<path style="fill:#ff550b; stroke:none;" d="M106 163C104.346 168.441 98.0429 170.149 93 169L93 170C107.743 180.468 122.147 184 140 184C129.964 175.249 119.41 164.972 106 163z"/>
<path style="fill:#ff946e; stroke:none;" d="M114 181L114 182L117 182L114 181z"/>
<path style="fill:#a093da; stroke:none;" d="M165.667 181.333L166.333 181.667L165.667 181.333z"/>
<path style="fill:#fdad93; stroke:none;" d="M117.667 182.333L118.333 182.667L117.667 182.333z"/>
<path style="fill:#ff744d; stroke:none;" d="M119.667 182.333L120.333 182.667L119.667 182.333z"/>
<path style="fill:#8d7ed1; stroke:none;" d="M161.667 182.333L162.333 182.667L161.667 182.333z"/>
<path style="fill:#40f5c1; stroke:none;" d="M181 185L181 186L188 183L181 185z"/>
<path style="fill:#ffc5b5; stroke:none;" d="M121 183L121 184L124 184L121 183z"/>
<path style="fill:#1800a6; stroke:none;" d="M143 183L143 184L153 184L143 183z"/>
<path style="fill:#7565c9; stroke:none;" d="M155 183L155 184L158 184L155 183z"/>
<path style="fill:#beb6e6; stroke:none;" d="M158 183L158 184L161 184L158 183z"/>
<path style="fill:#ffcfca; stroke:none;" d="M125 184L125 185L141 185L125 184z"/>
<path style="fill:#d1cced; stroke:none;" d="M141 184L141 185L156 185L141 184z"/>
<path style="fill:#00d6a5; stroke:none;" d="M101 186L101 187L108 189L108 188L101 186z"/>
<path style="fill:#00dfa5; stroke:none;" d="M176 187L176 188L181 187L176 187z"/>
<path style="fill:#9efadf; stroke:none;" d="M171.667 188.333L172.333 188.667L171.667 188.333z"/>
<path style="fill:#03d4af; stroke:none;" d="M173 188L173 189L176 189L173 188z"/>
<path style="fill:#569bcc; stroke:none;" d="M75.6667 189.333L76.3333 189.667L75.6667 189.333z"/>
<path style="fill:#00bbae; stroke:none;" d="M108 189L108 190L111 190L108 189z"/>
<path style="fill:#9ee9dd; stroke:none;" d="M111 189L111 190L117 190L111 189z"/>
<path style="fill:#9fdfde; stroke:none;" d="M163 189L163 190L170 190L163 189z"/>
<path style="fill:#08bdb3; stroke:none;" d="M170 189L170 190L173 190L170 189z"/>
<path style="fill:#83aed5; stroke:none;" d="M205.667 189.333L206.333 189.667L205.667 189.333z"/>
<path style="fill:#79d6ce; stroke:none;" d="M118 190L118 191L121 191L118 190z"/>
<path style="fill:#73e6d2; stroke:none;" d="M122 191L122 192L126 192L122 191z"/>
<path style="fill:#5ac6c7; stroke:none;" d="M154 191L154 192L159 192L154 191z"/>
<path style="fill:#44b9c1; stroke:none;" d="M129 192L129 193L134 193L129 192z"/>
<path style="fill:#9eefdd; stroke:none;" d="M134 192L134 193L146 193L134 192z"/>
<path style="fill:#40b3c0; stroke:none;" d="M146 192L146 193L151 193L146 192z"/>
<path style="fill:#77a2d4; stroke:none;" d="M193 197L194 198L193 197z"/>
<path style="fill:#5b86c8; stroke:none;" d="M89.6667 198.333L90.3333 198.667L89.6667 198.333z"/>
<path style="fill:#698bce; stroke:none;" d="M174 205L174 206L177 206L174 205z"/>
<path style="fill:#5e8acd; stroke:none;" d="M108 206L108 207L111 207L108 206z"/>
<path style="fill:#7d9ed6; stroke:none;" d="M171 206L171 207L174 207L171 206z"/>
<path style="fill:#8eaadb; stroke:none;" d="M111 207L111 208L114 208L111 207z"/>
<path style="fill:#779ad5; stroke:none;" d="M167.667 207.333L168.333 207.667L167.667 207.333z"/>
<path style="fill:#84a3d8; stroke:none;" d="M163.667 208.333L164.333 208.667L163.667 208.333z"/>
<path style="fill:#5d89cd; stroke:none;" d="M121.667 209.333L122.333 209.667L121.667 209.333z"/>
<path style="fill:#8dacdb; stroke:none;" d="M159.667 209.333L160.333 209.667L159.667 209.333z"/>
</svg>
