<?xml version="1.0" standalone="yes"?>
<svg width="328" height="282">
<path style="fill:#f7f7f7; stroke:none;" d="M0 0L0 282L171 282L263 281L263 277L259 277L254 281L254 276L258 276L258 272L254 272L254 267L259 267L259 262L263 262L263 257C232.986 250.785 202.657 231.032 186.228 205C178.631 192.962 175.093 178.812 169 166L190 172L190 171L173 156C186.88 158.079 195.014 168.51 207 174C204.367 166.217 198.155 160.454 190 159L200 153L200 152L186 155C192.119 148.734 195.301 142.78 196 134L177 149L182 136L179 143L175 143L170 147L170 143C174.362 142.272 174.863 140.176 175 136L170 136L170 131L174 131L174 127L170 127L173 122L168 124L156.514 86L159 54L154 56L154 51L149 51L149 56L145 56L145 60L149 60L149 65L145 65L145 70L149 75L142 70C144.436 82.6313 153.489 95.7598 158.085 108C162.614 120.062 163 131.302 163 144L162 144L154 120L153 120L152 144L151 144L143 134L146 145C131.875 142.378 118.213 147.251 104 145.829C83.4465 143.773 58.5842 122.913 48 106C62.9863 114.52 83.987 117.258 101 118L96 103C104.945 111.753 118.254 118.701 130 123C113.984 99.9929 99.9877 77.2604 99.0432 48C98.5125 31.5586 103.598 16.0736 105 0L0 0z"/>
<path style="fill:#5887b3; stroke:none;" d="M105 0C103.587 9.60349 96.8762 23.5511 101.313 33C104.855 40.5431 111.961 47.2005 116.853 53.8302C118.477 56.0309 122.406 58.2653 122 61L122 62L126 65L137 74C137.759 85.1891 148.219 102.355 158 108C147.406 69.1895 112.431 40.3013 107 0L105 0z"/>
<path style="fill:#f4f4f4; stroke:none;" d="M107 0C109.213 27.0963 128.819 48.1176 141 71L144 70L149 75L145 70L145 65L149 65L149 60L145 60L145 56L149 56L149 51L154 51L154 56C160.307 54.4548 160.151 50.1766 163.093 45.2593C167.739 37.4913 175.289 22.5725 183 18C178.68 36.1444 183 54.6854 183 73L191 65L193 67L194 67L196 65C193.932 70.4732 195.933 74.7777 198 80C210.368 67.0878 222.811 50.6757 227 33L228 33C228.493 56.8746 230.516 79.6197 214.482 100C205.708 111.153 190.562 117.351 184 130L180 113L179 113L170 127L174 127L174 131L170 131L170 136L175 136C174.699 139.952 173.882 141.822 170 143L170 147L175 143L179 143L180 136C185.205 135.774 187.453 131.483 191.015 128.09C197.397 122.009 204.776 116.745 212 111.721C240.767 91.7118 275.502 83.9713 301 59C300.964 69.6287 295.386 75.0938 291.482 84.0432C279.611 111.258 247.312 144.78 216 149L216 150L254 152L241 161L241 162L293 180C273.113 188.815 248.253 191.883 228 182.688C218.59 178.415 211.768 171.067 203 166L207 171C208.386 179.955 221.087 188.105 226.855 195C243.832 215.296 260.125 250.395 287 259L287 260L263 257L263 262L259 262L259 267L254 267L254 272L258 272L258 276L254 276L254 281L259 277L263 277L263 281L259 281L259 282L328 282L328 0L107 0z"/>
<path style="fill:#b3e1e1; stroke:none;" d="M180 20L183 20L181 18L180 20z"/>
<path style="fill:#0dc7d3; stroke:none;" d="M181 19C170.878 30.7339 159.472 48.0067 159 64C166.232 67.3746 170.36 75.2173 175.219 81.2585C177.015 83.4904 178.951 89.1998 182 86L183 86L184 90C189.599 84.2792 190.669 75.7144 191 68L182 75L179 37L181 19z"/>
<path style="fill:#cfffff; stroke:none;" d="M181 22L182 75L183 75L181.004 41L181 22z"/>
<path style="fill:#5ccacb; stroke:none;" d="M180 26L180 30L181 30L180 26z"/>
<path style="fill:#76f2f4; stroke:none;" d="M174.333 27.6667L174.667 28.3333L174.333 27.6667z"/>
<path style="fill:#21bcc0; stroke:none;" d="M179 28L180 59L181 59L179 28z"/>
<path style="fill:#984f98; stroke:none;" d="M100 31L102 68L103 68L103 63L104 63L114 80L121.728 88.3557L152 123L153 120L154 120C154.792 125.85 156.927 134.539 162 138L162 119L160 120C158.747 110.879 154.11 109.661 148.274 103.75C140.041 95.4115 123.705 78.6739 122 67L118 66L120 63C108.972 53.1834 105.63 43.9283 100 31z"/>
<path style="fill:#27adc8; stroke:none;" d="M227 33L215 59L219 63L222 62L223 68L228 69C228.233 57.7062 231.818 43.7328 227 33z"/>
<path style="fill:#7d67a5; stroke:none;" d="M101 34C102.427 44.9642 110.553 57.2611 120 63L118 66L122 67C123.597 88.9749 155.741 100.16 160 120L161 120C159.48 101.42 139.52 92.624 137 74L126 65L122 62L122 61L124 60L101 34z"/>
<path style="fill:#b293b5; stroke:none;" d="M99 41L99 53L100 53L99 41z"/>
<path style="fill:#76d3e2; stroke:none;" d="M163 43L163 44L166 44L163 43z"/>
<path style="fill:#34bbc1; stroke:none;" d="M163 44L161 51L162 51L165 44L163 44z"/>
<path style="fill:#affdff; stroke:none;" d="M229 46L229 59L230 59L229 46z"/>
<path style="fill:#35a4c2; stroke:none;" d="M160 51C157.497 61.9187 150.714 93.0181 168 96L168 101C172.349 100.861 175.037 102.568 173 107L180 112C182.633 104.221 185.149 93.9854 183 86L182 86C178.359 87.4437 177.334 82.9417 175.219 80.4552C170.302 74.6742 166.759 66.1793 159 64L160 51z"/>
<path style="fill:#5f81b1; stroke:none;" d="M214 59L205 71L221 87L227 70L226 70L225 75L214 59z"/>
<path style="fill:#409abd; stroke:none;" d="M215 59C213.757 65.8768 219.527 71.4385 225 75L227 69L223 68L222 62L219 63L217 59L215 59z"/>
<path style="fill:#00d1d8; stroke:none;" d="M300 59C287.597 71.1469 272.333 81.215 257 89L262 98C265.739 101.414 267.874 109.231 274.011 108.793C279.148 108.427 281.678 102.86 284 99C289.301 90.1896 303.119 69.5503 300 59z"/>
<path style="fill:#a1d8dd; stroke:none;" d="M228 62L228 67L229 67L228 62z"/>
<path style="fill:#caffff; stroke:none;" d="M300 62L294 80C298.381 76.8881 302.065 67.1114 300 62z"/>
<path style="fill:#bf2e8b; stroke:none;" d="M103 63C101.847 82.8167 113.542 105.981 127.09 119.961C134.439 127.544 145.424 133.186 150 143L151 143C150.953 137.309 152.894 127.011 151.218 122.001C147.437 110.702 131.203 96.0491 122.455 88.3557C119.204 85.496 118.284 81.3887 114 80C113.769 72.3727 107.983 68.1861 103 63z"/>
<path style="fill:#a64596; stroke:none;" d="M191 65L191 78L194 77L193 80L196 87L211 104C215 100.892 218.565 95.2597 212 93C211.037 86.8114 206.403 82.7005 201 80L203 74L202 74L198 80L191 65z"/>
<path style="fill:#59aabb; stroke:none;" d="M195 65L193 68L195 65z"/>
<path style="fill:#4a88b1; stroke:none;" d="M156 66C156 76.6206 154.252 91.2675 160.754 100.517C162.665 103.235 165.92 103.965 168.139 106.313C171.515 109.887 173.077 114.466 178 116C178.408 111.578 176.742 109.254 173 107C176.022 102.427 172.661 100.233 168 101L168 96C154.231 92.1088 159.877 75.2388 156 66z"/>
<path style="fill:#53689f; stroke:none;" d="M191 68L190 76L191 76L191 68z"/>
<path style="fill:#8063a5; stroke:none;" d="M204 71L201 80C205.827 83.4823 210.378 87.0657 212 93L216 97L223 84L222 84L221 87L204 71z"/>
<path style="fill:#c22b88; stroke:none;" d="M190 76L186 91L190 91L202 113C205.042 110.855 210.264 107.371 210.379 103.171C210.497 98.856 199.759 88.2193 196 87L194 77L190 76z"/>
<path style="fill:#63a1c8; stroke:none;" d="M186 87L184 94L185 94L186 87z"/>
<path style="fill:#2eafc5; stroke:none;" d="M262 122L276 110L276 109L262 98L260 87C255.841 88.1376 246.26 90.3994 244.955 95.213C243.366 101.077 251.256 105 254.402 108.456C257.794 112.182 259.571 117.607 262 122z"/>
<path style="fill:#ceffff; stroke:none;" d="M289 89L282 103L283 103L289 89z"/>
<path style="fill:#d71a80; stroke:none;" d="M184 130L201.222 111.25L190 91C178.611 92.8593 178.189 122.692 184 130z"/>
<path style="fill:#776da9; stroke:none;" d="M227 110L248 130L247 133L263 123C260.626 118.345 258.465 112.425 255.088 108.456C250.744 103.351 245.379 101.465 245 94C235.96 96.1472 226.434 99.6945 227 110z"/>
<path style="fill:#7c8bc4; stroke:none;" d="M183 97L182 100L183 97z"/>
<path style="fill:#637dae; stroke:none;" d="M161 101L168 124L177 116L161 101z"/>
<path style="fill:#24b2ca; stroke:none;" d="M96 103L101 118L72 114L71 118C75.6375 119.464 75.7451 123.224 78.3989 126.856C81.6137 131.256 89.3971 139.65 94.2894 142.091C110.538 150.198 128.952 142.845 146 145L146 139L145 139L145 143L109 145L90 119L102 119L99 109L105 111L105 110L96 103z"/>
<path style="fill:#98509a; stroke:none;" d="M218 107L218 109C227.932 116.964 236.165 125.82 240 138L236 139L236 140L249 134L248 130L227 110L227 103L218 107z"/>
<path style="fill:#36a3c2; stroke:none;" d="M48 106C55.8301 124.481 85.9584 144.974 106 146L106 145C94.1976 142.302 89.0037 136.504 80.5039 128.455C76.6852 124.839 76.6444 118.979 71 118L72 114L48 106z"/>
<path style="fill:#a9a0bd; stroke:none;" d="M158.333 108.667L158.667 109.333L158.333 108.667z"/>
<path style="fill:#ac3f92; stroke:none;" d="M212 111L222 128L235 139L234 143L240 138C237.998 128.278 223.765 104.201 212 111z"/>
<path style="fill:#00d1d8; stroke:none;" d="M99 109L102 119L90 119L96.277 125.599L109 145L145 143C144.427 125.351 113.479 112.842 99 109z"/>
<path style="fill:#e67cba; stroke:none;" d="M180 111L180 123L181 123L180 111z"/>
<path style="fill:#7cced9; stroke:none;" d="M273.667 111.333L274.333 111.667L273.667 111.333z"/>
<path style="fill:#d71a80; stroke:none;" d="M178 148L197 133L188 154C194.457 153.131 200.292 150.178 206.439 149.085C215.687 147.44 231.675 151.077 235 139L222 128L212 112C197.202 118.225 182.734 132.637 178 148z"/>
<path style="fill:#99c5d2; stroke:none;" d="M68.6667 113.333L69.3333 113.667L68.6667 113.333z"/>
<path style="fill:#89d2db; stroke:none;" d="M78 115L78 116L85 116L78 115z"/>
<path style="fill:#d9e1ff; stroke:none;" d="M130 123L131 124L130 123z"/>
<path style="fill:#9388c2; stroke:none;" d="M131 124L134 126L131 124z"/>
<path style="fill:#48b2ca; stroke:none;" d="M134 126L138 131L134 126z"/>
<path style="fill:#884475; stroke:none;" d="M162 128L162 144L163 144L162 128z"/>
<path style="fill:#bf7ea6; stroke:none;" d="M150 129L150 136L151 136L150 129z"/>
<path style="fill:#b2a9d4; stroke:none;" d="M138 130L143 135L138 130z"/>
<path style="fill:#ff85d0; stroke:none;" d="M196.333 133.667L196.667 134.333L196.333 133.667z"/>
<path style="fill:#da86b8; stroke:none;" d="M151 140L151 144L152 144L151 140z"/>
<path style="fill:#ee7ab7; stroke:none;" d="M180 140L180 143L181 143L180 140z"/>
<path style="fill:#cf8cb8; stroke:none;" d="M236 140L236 143L237 143L236 140z"/>
<path style="fill:#82c6cf; stroke:none;" d="M96 144L96 145L99 145L96 144z"/>
<path style="fill:#c0ffff; stroke:none;" d="M126 148L126 149L134 149L126 148z"/>
<path style="fill:#4fd3d5; stroke:none;" d="M134 148L134 149L149 149L134 148z"/>
<path style="fill:#d1a1b9; stroke:none;" d="M177.667 148.333L178.333 148.667L177.667 148.333z"/>
<path style="fill:#a42a7d; stroke:none;" d="M202 150L202 151L216 150L202 150z"/>
<path style="fill:#1ab9ce; stroke:none;" d="M102 155L102 156C107.422 162.883 118.502 182.101 128.09 182.823C132.944 183.188 137.22 179.548 141 177L138 176L138 172C133.387 170.701 119.368 154.957 125.153 151.457C132.909 146.764 147.358 151 156 151L156 153L152 153L152 154L163 153C145.528 142.022 119.942 151.59 102 155z"/>
<path style="fill:#64d5dd; stroke:none;" d="M116 150L116 151L122 151L116 150z"/>
<path style="fill:#01d0d8; stroke:none;" d="M138 172L138 176L160 164L160 163L140 157L140 156L156 153L156 151C147.504 150.999 131.781 146.436 124.319 151.457C118.723 155.222 133.316 171.275 138 172z"/>
<path style="fill:#30a9c6; stroke:none;" d="M201 156L205 156L204 159L207 160L206 163C211.273 166.082 211.222 170.152 215.062 174.249C220.954 180.537 228.701 184.079 237 186L237 185L221 170L211 152L225 152C217.82 148.987 205.424 148.655 201 156z"/>
<path style="fill:#b3fafe; stroke:none;" d="M213 150L213 151L224 151L213 150z"/>
<path style="fill:#b38ac4; stroke:none;" d="M200 152L200 153L207 152L200 152z"/>
<path style="fill:#88dae5; stroke:none;" d="M225 151L225 152L229 152L225 151z"/>
<path style="fill:#e08ebf; stroke:none;" d="M195.667 152.333L196.333 152.667L195.667 152.333z"/>
<path style="fill:#00d0d4; stroke:none;" d="M211 152L221 170C227.201 173.846 230.199 182.209 237.015 185.671C253.728 194.157 276.442 184.831 293 181L293 180L241 162L241 161C245.035 159.707 247.722 158.151 249 154L211 152z"/>
<path style="fill:#adf2f9; stroke:none;" d="M233 152L233 153L241 153L233 152z"/>
<path style="fill:#35b7b9; stroke:none;" d="M235 153L235 154L249 156L254 152L235 153z"/>
<path style="fill:#34a5c5; stroke:none;" d="M96 157C99.7633 163.692 105.454 168.733 109.867 174.843C111.992 177.787 111.175 181.688 113.179 184.486C117.16 190.045 125.379 185.918 130 184L130 183C118.097 181.338 110.245 163.321 102 156L102 155L108 154L96 157z"/>
<path style="fill:#bb8fb0; stroke:none;" d="M187 153L186 155L188 155L187 153z"/>
<path style="fill:#4a93bc; stroke:none;" d="M190 159L218 177L206 163L207 160L205 156L201 156L202 153C196.868 153.451 193.231 154.911 190 159z"/>
<path style="fill:#87d7d8; stroke:none;" d="M152.667 154.333L153.333 154.667L152.667 154.333z"/>
<path style="fill:#4893bb; stroke:none;" d="M88 158C89.7661 164.047 92.0658 173.274 100 170L99 173L102 171L100 174C105.647 182.86 108.467 190.976 121 188L121 187C111.697 186.153 114.323 181.037 110.396 174.843C106.492 168.686 100.617 162.763 96 157L100 156L88 158z"/>
<path style="fill:#647baf; stroke:none;" d="M173 156L190 171L190 172L186 172L186 173C200.238 173.622 208.079 190.478 215.608 200.83C220.005 206.877 225.814 209.538 221 217L224 221L225 221L230 217C232.567 223.952 241.779 244.939 249 246L249 249L256.302 255.347L270 258L270 257L265 256C265.42 249.406 260.678 245.296 256.963 240.336C249.771 230.733 242.387 221.701 234.745 212.435C231.465 208.458 227.875 201.74 223 200C222.277 195.686 219.896 193.757 216 192L218 189L207 177L210 178C201.314 166.644 186.86 158.697 173 156z"/>
<path style="fill:#c4b8dc; stroke:none;" d="M175.667 156.333L176.333 156.667L175.667 156.333z"/>
<path style="fill:#667aaf; stroke:none;" d="M90 178L97 181L96 183C103.693 189.008 105.429 192.329 116 190L116 189C106.254 187.446 105.416 180.229 100 174L102 171L99 173L100 170L98 172C91.9428 168.889 90.445 164.061 88 158C72.0439 163.129 85.7077 168.318 90 178z"/>
<path style="fill:#7869a4; stroke:none;" d="M95 192L95 193L89 193L89 194L109 192L109 191L96 183L97 181L90 178L80 161C64.5744 164.743 84.3788 179.817 89.571 185.298C91.7713 187.62 92.2339 190.265 95 192z"/>
<path style="fill:#aaffff; stroke:none;" d="M154 162L154 163L161 164L154 162z"/>
<path style="fill:#96529b; stroke:none;" d="M48 172L48 173C54.8904 171.987 63.4732 170.651 69.4552 175.738C78.4363 183.376 79.3331 194.885 93 195L93 194L89 194L89 193L95 193L95 192C87.7856 185.166 75.9456 173.837 73 164L48 172z"/>
<path style="fill:#b78eb0; stroke:none;" d="M169.333 166.667L169.667 167.333L169.333 166.667z"/>
<path style="fill:#9e4a98; stroke:none;" d="M170 167L176 184L182 183C182.247 187.743 183.158 191.485 188 193L186 198C204.245 205.995 215.5 225.303 227 241L221 239L221 240L253 255L254 255C253.57 251.259 252.814 249.661 249 249L249 246C241.372 244.006 233.845 224.164 230 217L225 221L224 221C222.62 216.563 218.134 213.047 215.305 209.285C207.884 199.416 196.267 178.355 184 175L184 171L170 167z"/>
<path style="fill:#a94295; stroke:none;" d="M51 172L51 173L59 176C59.9527 182.014 64.5392 189.315 70 192L67 193L67 194L83 194C77.0259 181.045 66.2841 169.173 51 172z"/>
<path style="fill:#d02284; stroke:none;" d="M14 177L14 178C26.2163 185.13 56.1642 200.288 70 192C64.9335 188.424 60.6871 181.994 59 176C44.5631 170.354 29.2246 175.798 14 177z"/>
<path style="fill:#7f65a6; stroke:none;" d="M183 172L183 173L184 175C195.336 179.661 203.678 195.57 211.075 204.926C214.469 209.219 217.312 215.075 223 216C224.974 208.353 219.678 205.673 215.608 199.91C206.447 186.94 199.783 174.132 183 172z"/>
<path style="fill:#4fbdce; stroke:none;" d="M142 176L145 173L142 176z"/>
<path style="fill:#e581b7; stroke:none;" d="M36.6667 174.333L37.3333 174.667L36.6667 174.333z"/>
<path style="fill:#d75b99; stroke:none;" d="M12 176L12 177L19 177L12 176z"/>
<path style="fill:#568bb3; stroke:none;" d="M207 177C208.541 182.267 213.395 186.222 218 189L216 192L223 200L234.745 213.274L256.371 240.336L265 256L287 260L287 259C262.979 247.541 248.774 222.197 233.014 202C225.785 192.736 218.55 181.036 207 177z"/>
<path style="fill:#98d9d5; stroke:none;" d="M288 179L288 180L292 180L288 179z"/>
<path style="fill:#25b0c7; stroke:none;" d="M123 199L123 200L139 198L146 214L149 214L154 180C140.635 180.285 132.483 190.953 123 199z"/>
<path style="fill:#d81b81; stroke:none;" d="M162 183C156.883 200.721 146.978 212.132 151.004 232C152.083 237.326 153.214 243.862 158 247L158 236L160 237L163 222L166 222L168 207L183 219C176.534 206.66 176.967 188.231 162 183z"/>
<path style="fill:#bd308c; stroke:none;" d="M227 241C219.212 225.62 202.766 203.196 186 198L188 193C183.793 190.813 182.476 187.612 182 183C172.7 184.557 182.174 199.133 185.018 204C193.737 218.927 209.859 236.406 227 241z"/>
<path style="fill:#b6bbd1; stroke:none;" d="M105.667 192.333L106.333 192.667L105.667 192.333z"/>
<path style="fill:#f592c9; stroke:none;" d="M56.6667 193.333L57.3333 193.667L56.6667 193.333z"/>
<path style="fill:#913872; stroke:none;" d="M66 194L66 195L86 195L66 194z"/>
<path style="fill:#bb6b9e; stroke:none;" d="M61 194L61 195L66 195L61 194z"/>
<path style="fill:#c4b0d5; stroke:none;" d="M93 194L93 195L96 195L93 194z"/>
<path style="fill:#f0b4da; stroke:none;" d="M74 195L74 196L84 196L74 195z"/>
<path style="fill:#d19bbb; stroke:none;" d="M181.333 196.667L181.667 197.333L181.333 196.667z"/>
<path style="fill:#82e5fc; stroke:none;" d="M137.667 198.333L138.333 198.667L137.667 198.333z"/>
<path style="fill:#779db2; stroke:none;" d="M120 200L120 201L130 201L120 200z"/>
<path style="fill:#5191b7; stroke:none;" d="M138 199C133.72 210.036 131.117 219.206 131 231L133 232C140.096 227.558 144.957 221.256 149 214C142.657 210.657 141.109 204.917 138 199z"/>
<path style="fill:#9399c9; stroke:none;" d="M152 201L152 204L153 204L154 201L152 201z"/>
<path style="fill:#ab68ad; stroke:none;" d="M151 204L150 212L151 212L151 204z"/>
<path style="fill:#e777b1; stroke:none;" d="M168 207L168 210L169 210L168 207z"/>
<path style="fill:#f3ebff; stroke:none;" d="M149 212L149 215L150 215L149 212z"/>
<path style="fill:#cd7bab; stroke:none;" d="M149 215L149 225L150 225L149 215z"/>
<path style="fill:#74629e; stroke:none;" d="M130 223L122 239C126.72 237.589 131.408 234.852 133 230L130 223z"/>
<path style="fill:#ed84bf; stroke:none;" d="M150 229L150 232L151 232L150 229z"/>
<path style="fill:#bbadc7; stroke:none;" d="M129.333 234.667L129.667 235.333L129.333 234.667z"/>
<path style="fill:#d997bd; stroke:none;" d="M151.333 234.667L151.667 235.333L151.333 234.667z"/>
<path style="fill:#98c2db; stroke:none;" d="M257.333 234.667L257.667 235.333L257.333 234.667z"/>
<path style="fill:#af4880; stroke:none;" d="M158 236L158 250L159 250L158 236z"/>
</svg>
