<?xml version="1.0" standalone="no"?>
<!DOCTYPE svg PUBLIC "-//W3C//DTD SVG 20010904//EN"
 "http://www.w3.org/TR/2001/REC-SVG-20010904/DTD/svg10.dtd">
<svg version="1.0" xmlns="http://www.w3.org/2000/svg"
 width="960.000000pt" height="960.000000pt" viewBox="0 0 960.000000 960.000000"
 preserveAspectRatio="xMidYMid meet">
<metadata>
Created by potrace 1.16, written by Peter Selinger 2001-2019
</metadata>
<g transform="translate(0.000000,960.000000) scale(0.100000,-0.100000)"
fill="#000000" stroke="none">
<path d="M3554 9030 c9 -102 18 -150 27 -144 5 3 6 -2 3 -10 -3 -9 -3 -24 0
-33 6 -15 8 -15 16 -3 6 10 7 2 3 -22 -4 -27 -2 -38 7 -38 7 0 10 6 7 14 -10
25 20 25 33 0 8 -13 17 -24 22 -24 5 0 6 -16 2 -35 -4 -24 -3 -35 6 -35 7 0
10 7 7 14 -4 11 -1 13 10 9 11 -4 14 -2 9 5 -4 7 -2 12 4 12 7 0 9 -8 5 -19
-6 -21 10 -38 20 -21 7 12 25 4 25 -11 0 -5 -9 -9 -20 -9 -22 0 -26 -10 -8
-28 8 -8 17 -6 36 8 14 11 31 20 38 20 8 0 14 4 14 10 0 13 -38 32 -50 25 -5
-3 -16 7 -24 23 -8 16 -22 32 -29 35 -26 10 -110 149 -139 231 l-29 81 5 -55z"/>
<path d="M5559 8893 c-13 -15 -11 -16 14 -9 32 8 34 -2 7 -32 -11 -12 -20 -25
-20 -30 0 -6 -10 -12 -22 -15 -12 -4 -20 -9 -16 -12 9 -9 58 17 58 31 0 6 7
14 15 18 10 3 15 -1 15 -13 0 -11 6 -22 13 -25 6 -3 2 -3 -10 0 -15 3 -25 -1
-32 -15 -9 -16 -8 -20 6 -23 15 -3 15 -6 -5 -24 l-23 -21 34 -26 c34 -26 134
-167 175 -247 39 -77 70 -162 87 -240 30 -137 35 -142 30 -30 -10 252 -121
544 -264 698 -34 36 -43 39 -62 15z"/>
<path d="M2550 8872 c-52 -5 -118 -24 -195 -54 -124 -48 -127 -60 -10 -33 66
16 219 21 265 9 60 -15 83 -17 76 -5 -4 6 -16 11 -27 11 -23 0 -27 45 -4 54
46 17 -15 28 -105 18z"/>
<path d="M7630 8462 c0 -5 9 -17 20 -27 25 -23 72 -120 93 -192 9 -28 21 -103
28 -165 10 -96 9 -133 -4 -248 -16 -130 -26 -190 -46 -275 -6 -22 -13 -53 -16
-70 -4 -16 -10 -39 -14 -50 -5 -11 -14 -38 -20 -60 -16 -53 -49 -140 -72 -192
-11 -24 -19 -47 -19 -53 0 -5 -4 -10 -10 -10 -5 0 -10 -6 -10 -14 0 -20 -52
-115 -111 -203 -48 -71 -144 -173 -164 -173 -5 0 -23 -9 -40 -21 l-30 -20 33
6 c39 8 89 32 99 48 5 7 22 20 38 29 17 10 29 22 27 28 -2 10 11 14 20 5 7 -7
-58 -75 -71 -75 -6 0 -11 -4 -11 -10 0 -17 38 -11 49 7 5 10 13 14 17 10 5 -4
3 -17 -4 -27 -14 -23 -13 -24 25 -9 15 6 64 12 108 15 161 9 401 83 471 145
11 11 28 19 37 19 21 0 53 107 79 265 16 102 17 439 0 520 -6 33 -19 95 -27
138 -55 279 -215 548 -376 629 -64 32 -99 43 -99 30z"/>
<path d="M4915 8220 c-3 -5 6 -12 20 -16 36 -9 32 -34 -5 -34 -17 0 -29 5 -27
11 1 6 -4 14 -10 16 -7 3 -13 -2 -13 -11 0 -9 12 -19 26 -22 19 -5 22 -9 12
-15 -18 -12 -65 -11 -73 0 -3 5 -22 8 -43 6 -20 -3 -29 -2 -19 1 9 3 17 9 17
14 0 12 -67 17 -86 7 -11 -6 -47 -6 -98 2 -45 6 -181 12 -304 14 -187 2 -216
1 -180 -9 24 -7 138 -15 258 -18 306 -8 382 -19 527 -77 121 -48 218 -124 270
-213 12 -20 12 -20 13 -2 0 21 -46 106 -64 118 -6 4 -11 16 -11 27 0 10 -13
34 -28 52 -15 19 -38 49 -50 68 -12 19 -31 39 -42 45 -11 6 -26 19 -33 29 -14
18 -47 23 -57 7z"/>
<path d="M5701 7846 c-7 -8 -23 -17 -36 -20 -14 -4 -25 -11 -25 -16 0 -6 -7
-10 -15 -10 -9 0 -20 -11 -25 -25 -10 -27 -30 -34 -30 -10 0 8 -6 15 -14 15
-20 0 -29 -17 -14 -23 10 -4 10 -6 1 -6 -7 -1 -18 8 -25 19 -15 24 -28 26 -28
5 0 -8 -4 -15 -8 -15 -5 0 -14 -10 -20 -22 l-11 -23 0 22 c-1 26 -17 39 -25
21 -3 -7 -5 3 -4 22 1 19 -2 36 -7 37 -13 3 -9 -154 5 -209 14 -55 56 -141 79
-162 17 -16 18 -12 25 63 6 73 17 114 49 181 21 44 97 127 127 140 17 7 30 16
30 21 0 14 -16 11 -29 -5z"/>
<path d="M3476 7353 c-4 -4 -28 -10 -54 -15 -32 -5 -25 -5 23 -1 132 10 150
10 185 -4 19 -8 44 -13 55 -11 29 3 95 -21 132 -48 17 -13 39 -24 47 -24 8 0
20 -9 26 -20 6 -11 15 -18 21 -15 10 7 58 -33 59 -47 0 -5 -7 -8 -15 -8 -8 0
-15 7 -15 15 0 8 -9 15 -19 15 -11 0 -21 6 -24 13 -3 9 -8 9 -17 1 -8 -8 -9
-14 -1 -18 16 -10 13 -26 -4 -26 -8 0 -15 4 -15 9 0 14 -32 23 -44 11 -7 -7
-5 -10 7 -10 9 0 26 -10 37 -22 l21 -23 -28 -12 c-18 -8 -22 -12 -10 -13 9 0
17 -5 17 -11 0 -5 -4 -8 -9 -4 -5 3 -3 -9 6 -26 8 -17 26 -35 39 -41 31 -14
30 -22 -2 -37 -19 -8 -25 -17 -21 -31 3 -13 -1 -21 -14 -25 -19 -6 -74 2 -93
13 -5 3 -113 5 -240 4 -270 -1 -422 -16 -731 -71 -78 -14 -225 -65 -237 -82
-8 -11 -9 -10 -5 3 5 15 2 15 -36 -3 -23 -10 -52 -19 -65 -19 -38 0 -16 -17
24 -18 36 -1 88 -32 54 -32 -8 0 -21 4 -29 9 -8 5 -21 5 -30 1 -9 -5 -24 -11
-33 -14 -13 -4 -18 -16 -18 -41 0 -34 13 -47 23 -22 3 6 6 -3 6 -20 1 -28 5
-33 26 -33 18 0 25 -5 25 -20 0 -15 -7 -20 -26 -20 l-26 0 4 -79 c3 -79 -4
-101 -35 -101 -16 0 -45 -29 -31 -31 5 -1 14 -2 19 -4 6 -1 16 -3 23 -3 6 -1
12 -9 12 -18 0 -12 -6 -15 -22 -11 -77 18 -75 18 -45 6 35 -14 24 -32 -14 -24
-29 7 -41 -8 -16 -19 6 -4 2 -4 -11 -2 -14 3 -25 -1 -29 -10 -3 -8 -11 -14
-19 -14 -8 0 -14 -5 -14 -10 0 -6 -10 -9 -22 -8 -13 2 -24 -1 -25 -6 -1 -5
-17 -15 -35 -23 -18 -8 -46 -21 -63 -28 -16 -8 -43 -17 -60 -21 -16 -4 -40
-14 -52 -22 -14 -8 -33 -12 -48 -8 -19 5 -23 3 -19 -9 4 -8 11 -15 18 -15 23
0 240 80 299 111 21 10 43 19 49 19 6 0 63 25 125 57 73 36 113 62 113 72 0
11 3 12 8 4 8 -12 80 20 190 85 29 18 55 32 57 32 2 0 39 22 82 49 244 151
485 232 781 262 187 20 530 3 665 -32 22 -6 41 -8 44 -5 6 5 -94 151 -151 220
-111 133 -273 266 -386 318 -36 17 -98 39 -139 49 -73 19 -211 26 -225 12z"/>
<path d="M5791 7121 c34 -33 69 -63 77 -66 8 -3 12 -8 9 -11 -6 -6 121 -186
135 -192 5 -2 8 -10 8 -19 0 -8 8 -27 19 -41 26 -38 121 -238 121 -257 0 -8 6
-32 14 -52 30 -80 57 -183 51 -193 -11 -18 24 -38 110 -64 216 -65 366 -85
665 -90 211 -4 219 -3 75 4 -88 4 -191 12 -229 18 -38 6 -82 8 -97 5 -17 -3
-29 -1 -29 5 0 14 -48 26 -100 24 l-45 -2 30 13 c25 11 27 14 12 20 -10 4 -16
11 -13 16 3 4 -3 16 -14 26 -19 17 -32 20 -113 23 -53 3 -43 26 11 29 26 1 49
9 63 22 13 12 26 21 31 21 4 0 8 9 8 20 0 11 -7 20 -15 20 -11 0 -15 11 -15
40 0 22 -4 40 -10 40 -6 0 -10 27 -10 60 0 33 4 60 10 60 14 0 12 38 -2 43 -7
2 -10 8 -5 12 4 5 13 3 19 -3 7 -7 21 -12 33 -12 25 0 52 16 42 26 -3 4 -13 1
-21 -5 -8 -7 -20 -9 -27 -5 -8 5 -7 9 5 16 9 5 16 13 16 18 0 16 -40 11 -46
-5 -7 -16 -44 -21 -44 -6 0 5 9 13 20 16 11 3 20 13 20 21 0 18 -8 18 -44 -1
-16 -9 -32 -13 -35 -9 -8 8 41 44 62 44 9 0 17 5 17 11 0 12 98 3 116 -12 12
-9 141 -34 289 -54 114 -16 155 -18 155 -7 0 4 -28 8 -63 9 -72 3 -219 27
-292 48 -27 8 -70 20 -95 26 -25 6 -54 15 -65 19 -11 4 -60 22 -110 39 -49 18
-98 36 -107 41 -10 6 -22 10 -28 10 -26 0 -405 181 -555 266 -33 18 -64 34
-68 34 -4 0 20 -27 54 -59z"/>
<path d="M6231 5891 c-1 -63 -5 -128 -11 -145 -5 -17 -12 -57 -15 -88 -7 -65
-25 -79 -25 -20 0 20 -4 32 -8 26 -5 -9 -11 -8 -20 2 -11 12 -8 14 13 14 33 0
31 33 -3 38 -23 4 -31 -13 -9 -21 6 -3 2 -6 -11 -6 -13 -1 -30 6 -38 14 -11
11 -38 15 -100 15 -71 0 -84 -3 -84 -16 0 -13 -7 -15 -32 -11 -18 3 -55 2 -83
-3 l-50 -7 43 -2 c41 -1 62 -21 22 -21 -11 0 -20 -4 -20 -10 0 -5 -9 -10 -20
-10 -11 0 -20 7 -20 15 0 11 -11 15 -40 15 -35 0 -40 -3 -41 -22 -1 -22 -1
-22 -8 2 -4 14 -4 35 1 48 7 19 5 23 -9 20 -11 -2 -24 -25 -37 -62 -17 -52
-21 -57 -29 -38 -7 15 -5 33 7 63 15 37 15 41 2 30 -9 -7 -14 -16 -12 -20 1
-3 -5 -14 -16 -23 -17 -17 -18 -17 -18 1 0 11 4 22 9 25 4 3 9 44 10 90 1 47
5 97 9 113 5 15 5 44 2 63 l-6 35 -6 -40 c-4 -22 -10 -69 -13 -105 -6 -74 -23
-165 -35 -195 -5 -11 -11 -31 -13 -45 -19 -101 -143 -349 -237 -475 -69 -92
-130 -206 -154 -287 -61 -211 45 -353 329 -443 89 -29 267 -64 339 -68 l49 -2
45 90 c110 219 249 607 282 785 6 30 15 69 20 85 38 119 74 582 52 670 -8 34
-10 23 -11 -74z"/>
<path d="M5256 5671 c4 -24 2 -41 -5 -45 -7 -5 -11 4 -11 23 0 17 -4 31 -9 31
-8 0 -14 -30 -26 -135 -12 -104 -44 -205 -65 -205 -4 0 -11 -13 -15 -29 -5
-23 -10 -27 -30 -24 -15 3 -23 1 -22 -9 2 -14 -4 -18 -28 -18 -9 0 -12 6 -9
15 7 17 -7 20 -22 5 -6 -6 -38 -11 -72 -13 -34 -1 -62 -5 -62 -8 0 -15 -44 -1
-46 15 -6 41 -4 46 -85 -154 -24 -58 -51 -118 -61 -135 -33 -55 -22 -59 50
-19 143 80 253 169 367 297 39 44 75 85 80 91 50 54 155 280 155 333 0 37 -14
18 -30 -40 -21 -79 -39 -74 -21 6 8 31 7 37 -5 33 -8 -3 -14 1 -14 9 0 8 -5
15 -10 15 -6 0 -8 -15 -4 -39z"/>
<path d="M4284 4073 c-16 -21 -31 -40 -34 -43 -10 -9 -147 -195 -174 -235 -26
-40 -35 -95 -15 -95 7 0 9 11 6 30 -5 24 -4 28 11 23 9 -3 14 -3 10 1 -4 5 -2
13 3 20 5 6 16 20 24 31 16 24 31 14 16 -12 -6 -10 -16 -31 -22 -48 -8 -23
-12 -26 -19 -15 -7 11 -10 7 -10 -17 0 -44 -18 -52 -33 -14 -11 30 -27 42 -27
20 0 -6 -18 -38 -40 -71 -22 -33 -40 -64 -40 -68 0 -5 -4 -10 -8 -12 -12 -5
-89 -131 -96 -158 l-6 -25 12 25 c7 14 15 27 18 30 6 5 64 90 116 170 16 25
32 47 37 48 4 2 7 11 7 20 1 15 3 14 15 -2 8 -11 15 -26 15 -34 0 -12 -2 -12
-17 -1 -15 13 -16 11 -9 -15 6 -24 4 -27 -9 -22 -9 3 -13 2 -10 -4 10 -16 45
-12 45 6 0 13 3 14 14 5 11 -9 15 -9 20 1 3 7 4 -50 1 -126 -3 -77 -5 -208 -5
-293 0 -129 -2 -153 -15 -153 -12 0 -15 -16 -15 -80 0 -64 3 -80 15 -80 13 0
15 -26 17 -162 4 -220 0 -301 -14 -309 -9 -6 -9 -14 0 -34 18 -38 15 -55 -9
-55 -20 0 -21 -4 -17 -50 3 -27 1 -50 -3 -50 -5 0 -9 -7 -9 -17 0 -15 2 -14
20 2 10 9 26 15 34 12 8 -3 26 3 39 14 45 35 40 20 -9 -31 -27 -27 -55 -50
-61 -50 -7 0 -13 -7 -13 -15 0 -8 -4 -15 -10 -15 -5 0 -7 7 -4 15 4 8 1 15 -5
15 -6 0 -8 7 -5 15 4 8 1 15 -5 15 -6 0 -11 -11 -11 -24 0 -15 -7 -26 -17 -29
-14 -4 -12 -5 5 -6 24 -1 31 -21 8 -21 -8 0 -21 -6 -28 -13 -28 -26 -114 -93
-138 -106 -14 -8 -34 -19 -45 -25 -10 -6 -25 -17 -33 -23 -7 -7 -21 -13 -30
-14 -9 0 -12 -3 -5 -5 12 -5 97 34 143 66 14 10 52 35 85 56 33 21 64 44 68
51 4 7 14 13 21 13 7 0 21 8 32 18 11 9 46 40 79 67 81 68 397 381 467 463 31
37 67 78 79 92 12 14 38 45 58 70 20 25 39 47 42 50 6 5 148 187 227 292 24
31 41 62 37 68 -3 6 -11 8 -16 5 -5 -4 -24 -2 -42 4 -17 6 -77 25 -132 42
-211 65 -405 207 -484 354 -12 22 -25 47 -30 55 -27 50 -34 69 -43 124 -16 99
-17 219 -2 262 7 21 12 40 10 42 -2 2 -17 -14 -32 -35z"/>
<path d="M7648 3879 c-10 -10 -18 -24 -18 -30 0 -6 -6 -9 -14 -6 -8 3 -13 -1
-12 -11 2 -24 -41 -28 -65 -6 -18 17 -19 16 -19 -14 0 -30 -2 -32 -34 -32 -38
0 -57 16 -29 23 10 2 2 4 -17 4 -19 0 -60 0 -90 1 -30 0 -113 -2 -185 -3 -253
-7 -997 -7 -1003 1 -4 4 -1 9 6 11 30 11 7 23 -44 23 -51 0 -55 -2 -49 -20 6
-18 2 -20 -34 -20 -33 0 -40 -3 -43 -22 -2 -13 -6 -22 -10 -20 -5 1 -21 2 -37
2 -23 0 -30 5 -33 23 -2 16 -10 22 -31 23 -16 1 -35 -5 -42 -12 -16 -16 -85
-19 -85 -4 0 6 -24 10 -57 9 -62 -3 -103 6 -103 22 0 12 -37 12 -45 -1 -3 -5
-18 -10 -33 -10 -56 -1 4 -17 123 -34 66 -9 154 -24 195 -32 192 -37 365 -46
895 -48 347 -2 542 -7 585 -14 238 -44 412 -124 493 -228 38 -48 73 -129 87
-199 15 -77 11 125 -5 215 -29 167 -77 269 -184 391 -18 22 -36 39 -40 38 -3
0 -14 -9 -23 -20z"/>
<path d="M2630 3856 c0 -8 -6 -16 -12 -19 -8 -2 -9 -8 -4 -13 5 -5 11 -4 13 4
6 16 33 16 33 -1 0 -7 -5 -18 -11 -24 -6 -6 -8 -16 -4 -23 5 -8 11 -6 19 6 12
15 15 14 40 -11 l28 -28 -37 -31 c-31 -27 -36 -36 -33 -66 2 -21 8 -34 16 -32
7 1 12 -9 12 -27 0 -23 5 -30 28 -36 l27 -7 -27 -23 -27 -23 1 -154 c1 -84 4
-118 6 -75 2 50 7 80 15 83 8 3 11 19 9 44 -4 39 -3 40 27 40 29 0 31 -3 31
-35 0 -32 -7 -40 -32 -36 -5 0 -8 -19 -8 -44 0 -54 -17 -60 -23 -7 -2 20 -4
-31 -5 -115 -1 -88 -6 -154 -12 -158 -17 -10 -12 -122 5 -129 11 -4 15 1 15
19 0 14 5 25 10 25 6 0 10 -22 10 -50 0 -27 5 -50 10 -50 6 0 10 -15 10 -32 0
-18 -4 -28 -8 -22 -5 9 -10 8 -20 -2 -10 -11 -6 -15 28 -20 47 -8 46 -13 -2
-21 -18 -2 -34 -9 -36 -14 -2 -5 -16 -9 -30 -9 -15 0 -34 -4 -41 -9 -12 -8 -8
-11 15 -16 16 -4 43 -13 61 -21 17 -8 46 -14 65 -14 19 0 39 -5 45 -11 7 -7
57 -11 141 -10 105 0 141 5 184 21 60 22 145 82 195 135 18 19 37 35 42 35 17
0 13 12 -14 52 -14 20 -25 40 -25 43 0 3 -5 11 -10 18 -6 7 -32 44 -58 83 -97
146 -149 218 -209 295 -35 44 -63 82 -63 85 0 3 -10 15 -22 28 -13 13 -45 52
-73 87 -117 149 -274 329 -286 329 -5 0 -9 -6 -9 -14z"/>
<path d="M8194 976 c4 -24 1 -36 -8 -39 -14 -6 -11 -46 4 -57 4 -3 15 -22 23
-42 13 -31 13 -38 3 -38 -8 0 -21 18 -30 40 -16 39 -36 54 -36 26 0 -22 -19
-30 -27 -11 -3 10 0 21 8 25 7 5 10 12 6 17 -5 4 -12 1 -17 -6 -4 -8 -14 -11
-22 -8 -11 4 -13 -3 -11 -27 2 -17 0 -26 -3 -19 -3 8 -19 10 -43 7 -33 -5 -39
-2 -44 15 -4 18 -12 20 -52 19 -26 -2 -42 -4 -36 -6 6 -2 11 -10 11 -18 0 -10
-8 -12 -28 -8 -19 4 -34 0 -45 -11 -16 -15 -17 -15 -17 4 0 12 -6 21 -15 21
-17 0 -20 -16 -5 -25 13 -8 13 -25 1 -25 -5 0 -13 9 -16 20 -3 11 -13 20 -21
20 -8 0 -14 7 -14 16 0 11 6 14 21 9 18 -6 20 -5 10 14 -13 24 -31 28 -31 7 0
-8 -5 -16 -12 -18 -7 -3 17 -44 58 -102 38 -54 74 -105 79 -114 48 -77 367
-382 400 -382 3 0 21 -11 38 -24 70 -53 348 -178 363 -164 3 4 -3 15 -14 26
-25 25 -146 208 -195 297 -47 83 -147 282 -147 292 0 3 -15 38 -34 77 -19 39
-40 89 -47 111 -6 22 -18 49 -25 60 -8 11 -14 27 -14 37 0 10 -5 18 -11 18 -6
0 -8 -13 -5 -34z"/>
</g>
</svg>
